/* XPM */
static char *slash_xpm[] = {
  "8 15 2 1",
  " 	c #FFFFFE",
  ".	c #000000",
  "       .",
  "      . ",
  "      . ",
  "     .  ",
  "     .  ",
  "    .   ",
  "    .   ",
  "    .   ",
  "   .    ",
  "   .    ",
  "  .     ",
  "  .     ",
  " .      ",
  " .      ",
  ".       "};
