/* XPM */
static char *two_points_xpm[] = {
  "6 15 2 1",
  " 	c #FFFFFE",
  ".	c #000000",
  "      ",
  "      ",
  "  ... ",
  "  ... ",
  "      ",
  "      ",
  "      ",
  "      ",
  "      ",
  "  ... ",
  "  ... ",
  "      ",
  "      ",
  "      ",
  "      "};
