/* XPM */
static char * aim_xpm[] = {
  "19 19 2 1",                   
  " 	c #FFFFFE",              
  ".	c #F3F1F3",              
  "         .         ",        
  "         .         ",
  "         .         ",
  "         .         ",
  "       .. ..       ",
  "      .  .  .      ",
  "     .   .   .     ",
  "    .    .    .    ",
  "    .   ...   .    ",
  ".... .... .... ....",
  "    .   ...   .    ",
  "    .    .    .    ",
  "     .   .   .     ",
  "      .  .  .      ",
  "       .. ..       ",
  "         .         ",
  "         .         ",
  "         .         ",
  "         .         "};
