/* XPM */
static char *_8dec2254de340b2916d05e961088e52nrBetQL57e92ExWZ[] = {
/* columns rows colors chars-per-pixel */
"40 40 4 1 ",
"  c None",
". c black",
"X c #434343",
"o c #980000",
/* pixels */
"                                        ",
"                                        ",
"                                        ",
"                                        ",
"                                        ",
"                                        ",
"                                        ",
"                                        ",
"                                        ",
"                                        ",
"                                        ",
"                                        ",
"                                        ",
"                                        ",
"                                        ",
"                                        ",
"                                        ",
"                                        ",
"                                        ",
"          ............................  ",
"        ...oo..XXXXXXXXXXXXXXXXXXXXXX.  ",
"        .oooo.........................  ",
"       .oooo..XXXXXXXX.oooo.XXXXXXXXX.  ",
"       .oooo...........oooo...........  ",
"      ..oooo.   .     ......            ",
"      .ooo.... ..                       ",
"     ......   ..                        ",
"                                        ",
"                                        ",
"                                        ",
"                                        ",
"                                        ",
"                                        ",
"                                        ",
"                                        ",
"                                        ",
"                                        ",
"                                        ",
"                                        ",
"                                        "
};
